<?xml version="1.0" encoding="UTF-8" standalone="no"?>
<!-- Created with Inkscape (http://www.inkscape.org/) -->

<svg
   xmlns:dc="http://purl.org/dc/elements/1.1/"
   xmlns:cc="http://creativecommons.org/ns#"
   xmlns:rdf="http://www.w3.org/1999/02/22-rdf-syntax-ns#"
   xmlns:svg="http://www.w3.org/2000/svg"
   xmlns="http://www.w3.org/2000/svg"
   xmlns:sodipodi="http://sodipodi.sourceforge.net/DTD/sodipodi-0.dtd"
   xmlns:inkscape="http://www.inkscape.org/namespaces/inkscape"
   width="48pt"
   height="48pt"
   viewBox="0 0 16.933334 16.933333"
   version="1.1"
   id="svg979"
   inkscape:version="0.92.4 (5da689c313, 2019-01-14)"
   sodipodi:docname="21 - No Camera.svg"
   inkscape:export-filename="E:\TR Design Studio Creative\Project Design\TR Creative Design\Icon Design\Project Hiring\Icon Icons\004 - Cinema\Send\01 - Line\20 - Movie POster.png"
   inkscape:export-xdpi="768"
   inkscape:export-ydpi="768">
  <defs
     id="defs973" />
  <sodipodi:namedview
     id="base"
     pagecolor="#ffffff"
     bordercolor="#666666"
     borderopacity="1.0"
     inkscape:pageopacity="0.0"
     inkscape:pageshadow="2"
     inkscape:zoom="8.078125"
     inkscape:cx="32"
     inkscape:cy="32"
     inkscape:document-units="pt"
     inkscape:current-layer="layer1"
     showgrid="false"
     units="pt"
     inkscape:window-width="1366"
     inkscape:window-height="716"
     inkscape:window-x="-8"
     inkscape:window-y="-8"
     inkscape:window-maximized="1"
     inkscape:snap-bbox="true"
     inkscape:bbox-nodes="true"
     inkscape:snap-nodes="false"
     showguides="false">
    <inkscape:grid
       type="xygrid"
       id="grid1526" />
    <sodipodi:guide
       position="0.97013909,15.963209"
       orientation="56.666615,0"
       id="guide1528"
       inkscape:locked="false" />
    <sodipodi:guide
       position="0.97013909,0.97016731"
       orientation="0,56.666667"
       id="guide1530"
       inkscape:locked="false" />
    <sodipodi:guide
       position="15.963195,0.97016731"
       orientation="-56.666615,0"
       id="guide1532"
       inkscape:locked="false" />
    <sodipodi:guide
       position="15.963195,15.963209"
       orientation="0,-56.666667"
       id="guide1534"
       inkscape:locked="false" />
  </sodipodi:namedview>
  <metadata
     id="metadata976">
    <rdf:RDF>
      <cc:Work
         rdf:about="">
        <dc:format>image/svg+xml</dc:format>
        <dc:type
           rdf:resource="http://purl.org/dc/dcmitype/StillImage" />
        <dc:title></dc:title>
      </cc:Work>
    </rdf:RDF>
  </metadata>
  <g
     inkscape:label="Layer 1"
     inkscape:groupmode="layer"
     id="layer1"
     transform="translate(0,-280.06668)">
    <path
       style="color:#000000;font-style:normal;font-variant:normal;font-weight:normal;font-stretch:normal;font-size:medium;line-height:normal;font-family:sans-serif;font-variant-ligatures:normal;font-variant-position:normal;font-variant-caps:normal;font-variant-numeric:normal;font-variant-alternates:normal;font-feature-settings:normal;text-indent:0;text-align:start;text-decoration:none;text-decoration-line:none;text-decoration-style:solid;text-decoration-color:#000000;letter-spacing:normal;word-spacing:normal;text-transform:none;writing-mode:lr-tb;direction:ltr;text-orientation:mixed;dominant-baseline:auto;baseline-shift:baseline;text-anchor:start;white-space:normal;shape-padding:0;clip-rule:nonzero;display:inline;overflow:visible;visibility:visible;opacity:1;isolation:auto;mix-blend-mode:normal;color-interpolation:sRGB;color-interpolation-filters:linearRGB;solid-color:#000000;solid-opacity:1;vector-effect:none;fill:#000000;fill-opacity:1;fill-rule:nonzero;stroke:none;stroke-width:0.529167;stroke-linecap:round;stroke-linejoin:round;stroke-miterlimit:1.5;stroke-dasharray:none;stroke-dashoffset:0;stroke-opacity:1;color-rendering:auto;image-rendering:auto;shape-rendering:auto;text-rendering:auto;enable-background:accumulate"
       d="m 8.4676204,281.03682 c -4.1359979,0 -7.49652109,3.36051 -7.49652109,7.49652 0,4.13599 3.36052319,7.49653 7.49652109,7.49653 4.1360006,0 7.4946136,-3.36054 7.4946136,-7.49653 0,-4.13601 -3.358613,-7.49652 -7.4946136,-7.49652 z m 0,0.65182 c 3.7837336,0 6.8421576,3.06097 6.8421576,6.8447 0,3.78372 -3.058424,6.84406 -6.8421576,6.84406 -3.7837305,0 -6.844069,-3.06034 -6.844069,-6.84406 0,-3.78373 3.0603385,-6.8447 6.844069,-6.8447 z m 0,0.65181 c -3.4160211,0 -6.1922525,2.77686 -6.1922525,6.19289 0,3.41601 2.7762314,6.19226 6.1922525,6.19226 3.4160206,0 6.1928906,-2.77625 6.1928906,-6.19226 0,-3.41603 -2.77687,-6.19289 -6.1928906,-6.19289 z m 0,0.65182 c 3.0637536,0 5.5410746,2.47731 5.5410746,5.54107 0,1.41455 -0.532964,2.69961 -1.402933,3.67793 l -0.78167,-0.78168 c 0.114383,-0.0236 0.234777,-0.0597 0.355826,-0.1324 0.302325,-0.18139 0.524506,-0.57428 0.524506,-1.13558 v -3.25718 c 0,-0.27158 -0.108335,-0.55377 -0.317633,-0.8154 -0.209299,-0.26162 -0.551449,-0.48888 -0.985998,-0.48887 h -0.327179 c 0.0034,-0.18381 -0.145893,-0.33372 -0.329729,-0.33163 -0.181009,0.002 -0.326104,0.15065 -0.322727,0.33163 H 9.8979232 L 9.7547033,285.16987 A 0.32594082,0.32594082 0 0 0 9.444709,284.94836 H 7.4886248 a 0.32594082,0.32594082 0 0 0 -0.3080873,0.22151 l -0.1438558,0.43029 H 5.9946664 L 4.7896986,284.3952 c 0.9783118,-0.86997 2.2633769,-1.40293 3.6779218,-1.40293 z m -4.1387783,1.86379 0.8122251,0.81158 c -0.2501347,0.0857 -0.4531985,0.24473 -0.5945279,0.42139 -0.2092988,0.26163 -0.315085,0.54382 -0.315085,0.8154 v 3.25718 c 0,0.5613 0.222182,0.95419 0.5245074,1.13558 0.3023249,0.18139 0.6136261,0.16869 0.7765769,0.16869 h 5.4080354 l 1.205605,1.20496 c -0.978343,0.87012 -2.263887,1.40294 -3.6785586,1.40294 -3.0637546,0 -5.5404373,-2.47669 -5.5404373,-5.54044 0,-1.41412 0.5321529,-2.69908 1.401659,-3.67728 z m 3.3959393,0.7441 h 1.4844065 l 0.252071,0.75558 a 0.32599727,0.32599727 0 0 0 0.6352661,-0.1031 h 1.304268 c 0.217269,-2e-5 0.36207,0.0967 0.478677,0.24251 0.116613,0.14577 0.173139,0.35499 0.173139,0.40929 v 0.65182 H 9.7617071 c -0.2980042,-0.39312 -0.7654123,-0.65182 -1.2940867,-0.65182 -0.3308755,0 -0.6388225,0.10064 -0.8968826,0.27181 L 6.647117,286.25264 h 0.1896915 a 0.32599727,0.32599727 0 0 0 0.6352674,0.1031 z m -2.1922428,0.65246 h 0.1935076 l 1.3036317,1.30363 H 4.8832708 v -0.65182 c 0,-0.0543 0.053977,-0.26352 0.1705899,-0.40929 0.1166125,-0.14576 0.2614106,-0.24253 0.4786779,-0.24252 z m 2.9350818,1.30363 c 0.5438423,0 0.9770886,0.43324 0.9770886,0.97709 0,0.15157 -0.036473,0.29275 -0.096756,0.42012 l -1.3004491,-1.30045 c 0.1276059,-0.0602 0.2685942,-0.0968 0.4201153,-0.0968 z m -0.8816073,0.55634 1.3017227,1.30109 c -0.1272515,0.0601 -0.2687275,0.0961 -0.4201154,0.0961 -0.5438425,0 -0.9789956,-0.43261 -0.9789956,-0.97645 0,-0.15183 0.036645,-0.29321 0.097384,-0.42075 z m -2.7027423,0.0955 h 1.9866379 c -0.021604,0.10519 -0.033098,0.2139 -0.033098,0.32526 0,0.89611 0.7347014,1.62828 1.6308116,1.62828 0.3306823,0 0.6386921,-0.10089 0.8962471,-0.27181 l 0.9248916,0.92426 H 6.1849931 v -0.97709 c 0,-0.39002 -0.1223772,-0.73633 -0.3660117,-0.96946 -0.243642,-0.23312 -0.5795,-0.33418 -0.9357106,-0.33418 z m 5.1801552,0 h 1.989183 v 1.95354 c 0,0.41644 -0.104356,0.51494 -0.209422,0.57797 -0.105058,0.0631 -0.27944,0.0745 -0.442394,0.0745 h -0.192234 l -1.383838,-1.38384 c 0.1713035,-0.25773 0.271804,-0.5658 0.271804,-0.89688 0,-0.11135 -0.01158,-0.22004 -0.0331,-0.32526 z m -5.1801552,0.97708 c 0.2367982,0 0.3887134,0.0613 0.4856779,0.15405 0.096966,0.0927 0.1635899,0.23599 0.1635899,0.49777 v 0.97709 c -0.1629508,0 -0.3373383,-0.0111 -0.4423945,-0.0745 -0.1050584,-0.0631 -0.2068733,-0.16153 -0.2068733,-0.57797 z"
       id="path1214"
       inkscape:connector-curvature="0" />
  </g>
</svg>
